<?xml version="1.0" standalone="no"?>
<!DOCTYPE svg PUBLIC "-//W3C//DTD SVG 20010904//EN"
 "http://www.w3.org/TR/2001/REC-SVG-20010904/DTD/svg10.dtd">
<svg version="1.0" xmlns="http://www.w3.org/2000/svg"
 width="512.000000pt" height="512.000000pt" viewBox="0 0 512.000000 512.000000"
 preserveAspectRatio="xMidYMid meet">

<g transform="translate(0.000000,512.000000) scale(0.100000,-0.100000)"
fill="#000000" stroke="none">
<path d="M1114 4846 c-442 -82 -767 -407 -838 -841 -15 -90 -17 -238 -14
-1490 l3 -1390 28 -100 c100 -365 367 -632 736 -733 l96 -27 1435 0 1435 0
100 27 c365 101 632 368 733 737 l27 96 0 1435 0 1435 -27 96 c-101 369 -368
636 -733 736 l-100 28 -1405 2 c-1112 1 -1420 -1 -1476 -11z m2286 -646 c20
-20 20 -33 20 -1640 0 -1607 0 -1620 -20 -1640 -24 -24 -57 -26 -82 -3 -17 15
-18 80 -18 1641 0 1498 1 1627 17 1644 21 24 58 23 83 -2z m-546 -546 c43 -42
43 -42 -496 -581 l-513 -513 513 -513 c452 -452 512 -516 512 -543 0 -38 -16
-54 -55 -54 -27 0 -92 62 -573 543 -422 422 -542 548 -542 567 0 19 120 145
542 567 572 572 570 570 612 527z"/>
</g>
</svg>
